<?xml version="1.0" encoding="utf-8"?>
<!-- Generator: Adobe Illustrator 18.0.0, SVG Export Plug-In . SVG Version: 6.00 Build 0)  -->
<!DOCTYPE svg PUBLIC "-//W3C//DTD SVG 1.1//EN" "http://www.w3.org/Graphics/SVG/1.1/DTD/svg11.dtd">
<svg version="1.1" xmlns="http://www.w3.org/2000/svg" xmlns:xlink="http://www.w3.org/1999/xlink" x="0px" y="0px"
	 viewBox="0 0 1000 1000" enable-background="new 0 0 1000 1000" height="1000px" width="1000px" xml:space="preserve">
<path fill="#9CDAF1" d="M756.1,820.6c0,35.6-113.1,64.4-252.6,64.4c-139.5,0-252.6-28.8-252.6-64.4c0-35.6,113.1-64.4,252.6-64.4
	C643,756.2,756.1,785,756.1,820.6L756.1,820.6z M756.1,820.6"/>
<g>
	<defs>
		<path id="SVGID_3_" d="M756.1,820.6c0,35.6-113.1,64.4-252.6,64.4c-139.5,0-252.6-28.8-252.6-64.4c0-35.6,113.1-64.4,252.6-64.4
			C643,756.2,756.1,785,756.1,820.6L756.1,820.6z M756.1,820.6"/>
	</defs>
	<clipPath id="SVGID_1_">
		<use xlink:href="#SVGID_3_"  overflow="visible"/>
	</clipPath>
	<path clip-path="url(#SVGID_1_)" fill="#7DBBE6" d="M359,810.3c0-7.9,28.3-9.2,49.9,1.8c15,7.6,25.9,22.9,25.9,38.7
		c0,50.1-2.1,82.3-0.3,97.8c1.8,15.5,6.9,27.1,11.8,31.4c4.9,4.3-25.4,56.2-30.8,53.2c-5.4-3-23.8-32.8-23.8-62.3
		c0-19.1,0.3-76.3,0.3-104.3c0-17.3-3-27.1-13.1-37.9C368.4,817.6,359,821.9,359,810.3z"/>
	<path clip-path="url(#SVGID_1_)" fill="#7DBBE6" d="M641.3,810.4c0-7.9-28.3-9.2-49.9,1.8c-15,7.6-25.9,22.9-25.9,38.7
		c0,50.1,2.1,82.3,0.3,97.8c-1.8,15.5-6.9,27.1-11.8,31.4c-4.9,4.3,25.4,56.2,30.8,53.2c5.4-3,23.8-32.8,23.8-62.3
		c0-19.1-0.3-76.3-0.3-104.3c0-17.3,3-27.1,13.1-37.9C631.9,817.7,641.3,822,641.3,810.4z"/>
	<path clip-path="url(#SVGID_1_)" fill="#7DBBE6" d="M571.8,837.8c-0.2-9.9-25.4-6.2-44,8.1c-13.2,10.2-21.6,32.6-21.6,48.5
		c0,50.1-0.2,79-0.2,94.6c0,15.7-0.8,53.7-0.8,61c0,6.6,14.5,26.6,19.8,23.6c5.4-3,26.1,3.7,26.1-25.8c0-19.1-0.3-112.8-0.3-140.8
		c0-17.3,1.2-32.2,7.7-45.4C565.1,848.3,572.1,849.4,571.8,837.8z"/>
	<path clip-path="url(#SVGID_1_)" fill="#7DBBE6" d="M427.4,837.8c0.2-9.9,25.4-6.2,44,8.1c13.2,10.2,21.6,32.6,21.6,48.5
		c0,50.1,0.2,79,0.2,94.6c0,15.7,0.8,53.7,0.8,61c0,6.6-14.5,26.6-19.8,23.6c-5.4-3-26.1,3.7-26.1-25.8c0-19.1,0.3-112.8,0.3-140.8
		c0-17.3-1.2-32.2-7.7-45.4C434.1,848.3,427.1,849.4,427.4,837.8z"/>
</g>
<path fill="#9CDAF1" d="M215,576l-7.3,25.5c0,0-1.9,9.2,6.8,10.8c9-0.2,8.3-8.6,7.7-11.4L215,576L215,576z M215,576"/>
<path fill="#211F1F" d="M949.3,469.2l0.7-3.3c-74.1-14.9-150.2-15-196.2-13.1c7.6-27.3,9.8-58.7,9.8-93.8c0-50.3-18.8-90.5-49.4-121
	c5.3-17.3,12.5-55.7-7.1-104.8c0,0-34.6-11-112.8,41.5c-30.6-7.7-63.2-11.5-95.9-11.5c-35.9,0-72.2,4.6-106.1,13.9
	C311.6,121.9,276,133.2,276,133.2c-23.3,58.3-8.9,101.5-4.5,112.2c-27.3,29.6-44,67.3-44,113.6c0,35,4,66.3,13.7,93.6
	c-46.4-1.7-119.7-1-191.1,13.3l0.7,3.3c71.9-14.4,145.6-14.9,191.7-13.2c2.1,5.6,4.5,11.1,7.2,16.4c-45.6,1.5-123.5,7.3-198.1,28.4
	l0.9,3.2c75.2-21.3,153.8-26.9,198.9-28.3c27.2,50.9,81,83.8,176.5,94.2c-13.6,9.1-27.4,24.7-33,51c-18.5,8.9-77,30.5-112.1-30
	c0,0-19.7-36-57.3-38.9c0,0-36.5-0.6-2.5,22.8c0,0,24.4,11.5,41.3,54.9c0,0,22,64.4,128,40.7v85.9c0,0-2.2,27-26.9,36
	c0,0-14.6,10.1,1.1,15.8c0,0,68.5,5.6,68.5-50.6v-83.3c0,0-1.2-30.3,10.7-42.1c0.9-0.9,2.8-2.2,2.8,0.3c0,2.5,0,148.4,0,148.4
	s-1.1,32.6-18,45c0,0-11.2,20.3,13.5,14.6c0,0,47.1-6.8,49.4-61.9l1.1-152.8c0,0-0.9-6.2,5.4-6.2c6.2,0,6,6.2,6,6.2l1.1,152.8
	c2.2,55.2,49.4,61.9,49.4,61.9c24.7,5.6,13.5-14.6,13.5-14.6c-16.8-12.4-18-45-18-45s0-146.3,0-147.5s1.2-1.5,1.7-1
	c12.3,12.4,11.7,41.9,11.7,41.9v83.3c0,56.3,68.5,50.6,68.5,50.6c15.7-5.6,1.1-15.8,1.1-15.8c-24.7-9-26.9-36-26.9-36V647.1
	c0-42.6-17.9-65.1-35.4-77C674.3,560,723.2,527,745.8,475.7c44.6,1.2,125,6.7,201.8,28.4l0.9-3.2c-76.4-21.6-156.2-27.2-201.3-28.5
	c2.1-5.2,4-10.6,5.7-16.1C798.5,454.3,874.9,454.3,949.3,469.2L949.3,469.2z M949.3,469.2"/>
<path fill="#F4CBB2" d="M664,356.7c22,19.9,34.8,44,34.8,70c0,121.1-90.1,124.4-201.1,124.4c-111.1,0-201.2-16.8-201.2-124.4
	c0-25.8,12.7-49.7,34.3-69.6c36.2-33.1,97.4-15.6,166.8-15.6C566.8,341.5,627.8,323.8,664,356.7L664,356.7z M664,356.7"/>
<path fill="#FFFFFF" d="M430.7,432.8c0,33.4-18.7,60.4-41.9,60.4c-23.1,0-41.9-27-41.9-60.4c0-33.4,18.7-60.4,41.9-60.4
	C412,372.4,430.7,399.5,430.7,432.8L430.7,432.8z M430.7,432.8"/>
<path fill="#AD5C51" d="M419.7,433.6c0,22.2-12.5,40.3-27.9,40.3c-15.4,0-27.9-18-27.9-40.3c0-22.3,12.5-40.3,27.9-40.3
	C407.2,393.3,419.7,411.3,419.7,433.6L419.7,433.6z M419.7,433.6"/>
<path fill="#FFFFFF" d="M655.3,432.8c0,33.4-18.7,60.4-41.9,60.4c-23.1,0-41.9-27-41.9-60.4c0-33.4,18.7-60.4,41.9-60.4
	C636.5,372.4,655.3,399.5,655.3,432.8L655.3,432.8z M655.3,432.8"/>
<path fill="#AD5C51" d="M637.1,433.6c0,22.2-12.5,40.3-27.9,40.3c-15.4,0-27.9-18-27.9-40.3c0-22.3,12.5-40.3,27.9-40.3
	C624.6,393.3,637.1,411.3,637.1,433.6L637.1,433.6z M637.1,433.6"/>
<path fill="#AD5C51" d="M508.7,486.5c0,5.8-4.7,10.5-10.5,10.5s-10.5-4.7-10.5-10.5c0-5.8,4.7-10.5,10.5-10.5
	S508.7,480.7,508.7,486.5L508.7,486.5z M508.7,486.5"/>
<path fill="#AD5C51" d="M473.8,513c-0.6-1.8,0.3-3.7,2-4.3c1.8-0.6,3.7,0.3,4.3,2.1c2.7,7.6,9.9,12.7,18,12.7c8,0,15.3-5.1,18-12.7
	c0.6-1.8,2.5-2.7,4.3-2.1c1.8,0.6,2.7,2.5,2.1,4.3c-3.6,10.3-13.4,17.2-24.3,17.2S477.5,523.3,473.8,513L473.8,513z M473.8,513"/>
<path fill="#9CDAF1" d="M241.8,561c0,2.8-3.3,5.1-7.3,5.1c-4,0-7.3-2.3-7.3-5.1c0-2.8,3.3-5.1,7.3-5.1
	C238.5,555.9,241.8,558.2,241.8,561L241.8,561z M241.8,561"/>
<path fill="#9CDAF1" d="M262,572.3c0,2.8-3.3,5.1-7.3,5.1c-4,0-7.3-2.3-7.3-5.1c0-2.8,3.3-5.1,7.3-5.1
	C258.7,567.2,262,569.5,262,572.3L262,572.3z M262,572.3"/>
<path fill="#9CDAF1" d="M274.3,586.9c0,2.8-3.3,5.1-7.3,5.1c-4,0-7.3-2.3-7.3-5.1c0-2.8,3.3-5.1,7.3-5.1
	C271.1,581.8,274.3,584.1,274.3,586.9L274.3,586.9z M274.3,586.9"/>
<path fill="#9CDAF1" d="M285.6,603.8c0,2.8-3.3,5.1-7.3,5.1c-4,0-7.3-2.3-7.3-5.1s3.3-5.1,7.3-5.1
	C282.3,598.7,285.6,601,285.6,603.8L285.6,603.8z M285.6,603.8"/>
<path fill="#9CDAF1" d="M297.9,619.6c0,2.8-3.3,5.1-7.3,5.1c-4,0-7.3-2.3-7.3-5.1c0-2.8,3.3-5.1,7.3-5.1
	C294.6,614.5,297.9,616.8,297.9,619.6L297.9,619.6z M297.9,619.6"/>
<path fill="#9CDAF1" d="M314.7,633.1c0,2.8-3.3,5.1-7.3,5.1c-4,0-7.3-2.3-7.3-5.1c0-2.8,3.3-5.1,7.3-5.1
	C311.5,628,314.7,630.3,314.7,633.1L314.7,633.1z M314.7,633.1"/>
<path fill="#9CDAF1" d="M338.3,642.1c0,2.8-3.3,5.1-7.3,5.1c-4,0-7.3-2.3-7.3-5.1c0-2.8,3.3-5.1,7.3-5.1
	C335.1,637,338.3,639.3,338.3,642.1L338.3,642.1z M338.3,642.1"/>
<path fill="#9CDAF1" d="M361.8,642.1c0,2.8-3.3,5.1-7.3,5.1c-4,0-7.3-2.3-7.3-5.1c0-2.8,3.3-5.1,7.3-5.1
	C358.5,637,361.8,639.3,361.8,642.1L361.8,642.1z M361.8,642.1"/>
<path fill="#9CDAF1" d="M385.6,638.2c0,2.8-3.3,5.1-7.3,5.1c-4,0-7.3-2.3-7.3-5.1c0-2.8,3.3-5.1,7.3-5.1
	C382.3,633.1,385.6,635.4,385.6,638.2L385.6,638.2z M385.6,638.2"/>
<path d="M448.4,629.6"/>
<path fill="#C49B87" d="M330.8,364.2c36.2-33.1,97.4-15.6,166.8-15.6c69.2,0,130.1-17.7,166.4,15.2c21.4,19.4,34.1,42.8,34.7,68
	c0-1.7,0.1-3.4,0.1-5.2c0-25.9-12.8-50-34.8-70c-36.2-32.9-97.2-15.2-166.4-15.2c-69.4,0-130.6-17.5-166.8,15.6
	c-21.7,19.9-34.3,43.8-34.3,69.6c0,1.3,0.1,2.5,0.1,3.8C297.6,406,310.1,383.2,330.8,364.2z"/>
<path fill="#FFFFFF" d="M369.9,423c0.3-6.3,4.3-15.7,8.7-17.9c1.5,3.5,3.8,7.4,5.1,9.2c-2.2,2.2-3.8,6.3-4.1,12.3
	C377.1,426.2,372.3,425.1,369.9,423z"/>
<path fill="#FFFFFF" d="M588.7,423c0.3-6.3,4.3-15.7,8.7-17.9c1.5,3.5,3.8,7.4,5.1,9.2c-2.2,2.2-3.8,6.3-4.1,12.3
	C595.9,426.2,591,425.1,588.7,423z"/>
<path d="M364.1,807.1c7.3,4.2,64.6,1.2,69.6-37.8C424.6,792,403.5,806,364.1,807.1z"/>
<path d="M635.9,807.3c-7.3,4.2-64.6,1.2-69.6-37.8C576.5,795.3,607.7,806.9,635.9,807.3z"/>
<path d="M427.9,569.9c0,0,32.2,2.4,72.8,2.4c32.9,0,45.8-1.3,71.7-2.2c10.1,5.3,24.6,28.1,27.6,34.1c0.1,0.1-22.3-25.3-99-25.3
	c-74.9,0-101.1,25.9-101.1,25.9S405.9,585.7,427.9,569.9z"/>
<path d="M435.1,663.7c-2.7-10.1,2.5-38.6,13.2-40.4c0.1,2.2,0,4.9,0,8C446.9,628.5,436.6,639.2,435.1,663.7z"/>
<path d="M564.7,664.8c2.7-10.1-2.5-38.6-13.2-40.4c-0.1,2.2,0,4.9,0,8C553,629.7,563.2,640.4,564.7,664.8z"/>
<path d="M494.3,625.7c-1.4-12,11.5-12.8,11.5-0.5C505.4,619.1,494.9,616.1,494.3,625.7z"/>
<path d="M394.9,620.9c0,0-2.6,6.6-2.6,49.5l-2.5,0.5c0,0-0.3-35.7,2.5-48.8L394.9,620.9z"/>
<path d="M271.2,641.7c4.6,8.9,35.1,40.5,93.6,33.1C344.6,675.1,304.9,676.9,271.2,641.7z"/>
</svg>
